<?xml version="1.0" standalone="no"?>
<!DOCTYPE svg PUBLIC "-//W3C//DTD SVG 20010904//EN"
 "http://www.w3.org/TR/2001/REC-SVG-20010904/DTD/svg10.dtd">
<svg version="1.0" xmlns="http://www.w3.org/2000/svg"
 width="400.000000pt" height="400.000000pt" viewBox="0 0 400.000000 400.000000"
 preserveAspectRatio="xMidYMid meet">
<metadata>
Created by potrace 1.11, written by Peter Selinger 2001-2013
</metadata>
<g transform="translate(0.000000,400.000000) scale(0.100000,-0.100000)"
fill="#000000" stroke="none">
<path d="M2509 3296 c-2 -2 -20 -6 -40 -9 -106 -14 -269 -90 -349 -163 -24
-22 -37 -24 -150 -27 -137 -4 -228 -28 -341 -88 -283 -151 -441 -481 -381
-799 33 -179 126 -333 277 -459 36 -30 177 -105 228 -121 l37 -12 1 -291 c1
-257 2 -332 8 -450 3 -70 132 -125 361 -153 19 -3 46 -7 60 -9 49 -9 278 -19
435 -19 375 0 651 41 760 113 74 49 90 145 90 533 l0 238 27 11 c16 6 28 15
28 20 0 5 5 9 11 9 15 0 93 62 139 109 264 274 284 708 45 1000 -127 156 -289
243 -512 276 -34 5 -54 17 -105 68 -147 147 -307 216 -514 223 -61 2 -113 2
-115 0z"/>
<path d="M87 1882 c-22 -24 -21 -55 1 -75 17 -15 61 -17 429 -17 394 0 411 1
428 20 19 21 14 68 -8 82 -7 4 -197 8 -423 8 -385 0 -412 -1 -427 -18z"/>
<path d="M623 1435 c-3 -9 -1 -21 4 -26 5 -5 109 -8 254 -7 236 3 244 4 244
23 0 19 -8 20 -248 23 -218 2 -248 0 -254 -13z"/>
<path d="M361 941 c-8 -5 -11 -16 -6 -30 6 -21 9 -21 293 -21 158 0 293 4 301
9 8 5 11 16 6 30 -6 21 -9 21 -293 21 -158 0 -293 -4 -301 -9z"/>
</g>
</svg>
